# Blender 4.1.1
# www.blender.org
mtllib StickyNote.mtl
o sticky_note
v 0.000025 0.000747 -0.000052
v -0.000007 0.001000 -0.015080
v -0.018793 0.000839 -0.015044
v -0.018762 0.000585 -0.000016
v 0.037597 0.001069 -0.000125
v 0.037563 0.001700 -0.015146
v 0.018777 0.001539 -0.015110
v 0.018813 0.000908 -0.000089
v -0.037586 0.001504 -0.014994
v -0.037549 0.000424 0.000020
v -0.017535 0.020391 0.056692
v -0.018744 0.009775 0.045051
v -0.037453 0.011720 0.044182
v -0.035652 0.024632 0.053403
v 0.000930 0.018254 0.058075
v 0.000014 0.008335 0.045077
v 0.019446 0.017225 0.058620
v 0.018803 0.007406 0.045035
v 0.037996 0.016168 0.059089
v 0.037612 0.006991 0.044954
v -0.019075 0.001963 0.030786
v -0.038007 0.003555 0.030577
v -0.000115 0.001288 0.030383
v 0.018856 0.001151 0.029955
v 0.037654 0.001903 0.029893
v -0.018807 0.000367 0.015175
v -0.037796 0.001066 0.015642
v 0.000056 0.000493 0.014976
v 0.018841 0.000655 0.014939
v 0.037629 0.000816 0.014903
vn -0.0108 0.9997 0.0197
vn -0.0136 0.9996 0.0232
vn 0.0025 0.9995 0.0306
vn 0.0028 0.9999 0.0158
vn -0.0085 0.9995 0.0294
vn -0.0085 0.9991 0.0420
vn -0.0135 0.9993 0.0357
vn -0.0110 0.9996 0.0263
vn 0.0135 0.9989 0.0443
vn 0.0138 0.9998 0.0152
vn 0.1434 0.7040 -0.6956
vn 0.1095 0.7964 -0.5948
vn 0.1443 0.7643 -0.6285
vn 0.1913 0.6374 -0.7464
vn 0.0731 0.7816 -0.6195
vn 0.0539 0.8465 -0.5296
vn 0.0441 0.8124 -0.5814
vn 0.0251 0.8746 -0.4842
vn 0.0383 0.8236 -0.5658
vn 0.0144 0.8866 -0.4623
vn 0.0544 0.9531 -0.2976
vn 0.0787 0.9437 -0.3214
vn 0.0199 0.9680 -0.2503
vn -0.0038 0.9765 -0.2154
vn -0.0172 0.9786 -0.2052
vn 0.0194 0.9985 -0.0511
vn 0.0372 0.9965 -0.0743
vn -0.0011 0.9998 -0.0215
vn -0.0107 0.9998 -0.0153
vn -0.0165 0.9997 -0.0179
vt 0.487094 0.804391
vt 0.487094 0.995007
vt 0.248616 0.995007
vt 0.248616 0.804391
vt 0.963078 0.804391
vt 0.963078 0.995007
vt 0.725226 0.995007
vt 0.725226 0.804391
vt 0.009176 0.995007
vt 0.009176 0.804391
vt 0.248616 0.006540
vt 0.248616 0.213879
vt 0.009176 0.213879
vt 0.009176 0.006540
vt 0.487094 0.006540
vt 0.487094 0.213879
vt 0.725226 0.006540
vt 0.725226 0.213879
vt 0.963078 0.006540
vt 0.963078 0.213879
vt 0.248616 0.418398
vt 0.009176 0.418398
vt 0.487094 0.418398
vt 0.725226 0.418398
vt 0.963078 0.418398
vt 0.248616 0.611900
vt 0.009176 0.611900
vt 0.487094 0.611900
vt 0.725226 0.611900
vt 0.963078 0.611900
s 1
usemtl Material.001
f 1/1/1 2/2/2 3/3/3 4/4/4
f 5/5/5 6/6/6 7/7/7 8/8/8
f 4/4/4 3/3/3 9/9/9 10/10/10
f 8/8/8 7/7/7 2/2/2 1/1/1
f 11/11/11 12/12/12 13/13/13 14/14/14
f 15/15/15 16/16/16 12/12/12 11/11/11
f 17/17/17 18/18/18 16/16/16 15/15/15
f 19/19/19 20/20/20 18/18/18 17/17/17
f 12/12/12 21/21/21 22/22/22 13/13/13
f 16/16/16 23/23/23 21/21/21 12/12/12
f 18/18/18 24/24/24 23/23/23 16/16/16
f 20/20/20 25/25/25 24/24/24 18/18/18
f 21/21/21 26/26/26 27/27/27 22/22/22
f 23/23/23 28/28/28 26/26/26 21/21/21
f 24/24/24 29/29/29 28/28/28 23/23/23
f 25/25/25 30/30/30 29/29/29 24/24/24
f 26/26/26 4/4/4 10/10/10 27/27/27
f 28/28/28 1/1/1 4/4/4 26/26/26
f 29/29/29 8/8/8 1/1/1 28/28/28
f 30/30/30 5/5/5 8/8/8 29/29/29
o sticky_note.001
v 0.000025 0.000747 -0.000052
v -0.000007 0.001000 -0.015080
v -0.018793 0.000839 -0.015044
v -0.018762 0.000585 -0.000016
v 0.037597 0.001069 -0.000125
v 0.037563 0.001700 -0.015146
v 0.018777 0.001539 -0.015110
v 0.018813 0.000908 -0.000089
v -0.037586 0.001504 -0.014994
v -0.037549 0.000424 0.000020
v -0.017535 0.020391 0.056692
v -0.018744 0.009775 0.045051
v -0.037453 0.011720 0.044182
v -0.035652 0.024632 0.053403
v 0.000930 0.018254 0.058075
v 0.000014 0.008335 0.045077
v 0.019446 0.017225 0.058620
v 0.018803 0.007406 0.045035
v 0.037996 0.016168 0.059089
v 0.037612 0.006991 0.044954
v -0.019075 0.001963 0.030786
v -0.038007 0.003555 0.030577
v -0.000115 0.001288 0.030383
v 0.018856 0.001151 0.029955
v 0.037654 0.001903 0.029893
v -0.018807 0.000367 0.015175
v -0.037796 0.001066 0.015642
v 0.000056 0.000493 0.014976
v 0.018841 0.000655 0.014939
v 0.037629 0.000816 0.014903
vn 0.0108 -0.9997 -0.0197
vn -0.0028 -0.9999 -0.0158
vn -0.0025 -0.9995 -0.0306
vn 0.0136 -0.9996 -0.0232
vn 0.0085 -0.9995 -0.0294
vn 0.0110 -0.9996 -0.0263
vn 0.0135 -0.9993 -0.0357
vn 0.0085 -0.9991 -0.0420
vn -0.0138 -0.9998 -0.0152
vn -0.0135 -0.9989 -0.0443
vn -0.1434 -0.7040 0.6956
vn -0.1913 -0.6374 0.7464
vn -0.1443 -0.7643 0.6285
vn -0.1095 -0.7964 0.5948
vn -0.0731 -0.7816 0.6195
vn -0.0539 -0.8465 0.5296
vn -0.0441 -0.8124 0.5814
vn -0.0251 -0.8746 0.4842
vn -0.0383 -0.8236 0.5658
vn -0.0144 -0.8866 0.4623
vn -0.0787 -0.9437 0.3214
vn -0.0544 -0.9531 0.2976
vn -0.0199 -0.9680 0.2503
vn 0.0038 -0.9765 0.2154
vn 0.0172 -0.9786 0.2052
vn -0.0372 -0.9965 0.0743
vn -0.0194 -0.9985 0.0511
vn 0.0011 -0.9998 0.0215
vn 0.0107 -0.9998 0.0153
vn 0.0165 -0.9997 0.0179
vt 0.487094 0.804391
vt 0.248616 0.804391
vt 0.248616 0.995007
vt 0.487094 0.995007
vt 0.963078 0.804391
vt 0.725226 0.804391
vt 0.725226 0.995007
vt 0.963078 0.995007
vt 0.009176 0.804391
vt 0.009176 0.995007
vt 0.248616 0.006540
vt 0.009176 0.006540
vt 0.009176 0.213879
vt 0.248616 0.213879
vt 0.487094 0.006540
vt 0.487094 0.213879
vt 0.725226 0.006540
vt 0.725226 0.213879
vt 0.963078 0.006540
vt 0.963078 0.213879
vt 0.009176 0.418398
vt 0.248616 0.418398
vt 0.487094 0.418398
vt 0.725226 0.418398
vt 0.963078 0.418398
vt 0.009176 0.611900
vt 0.248616 0.611900
vt 0.487094 0.611900
vt 0.725226 0.611900
vt 0.963078 0.611900
s 1
usemtl Material.002
f 31/31/31 34/32/32 33/33/33 32/34/34
f 35/35/35 38/36/36 37/37/37 36/38/38
f 34/32/32 40/39/39 39/40/40 33/33/33
f 38/36/36 31/31/31 32/34/34 37/37/37
f 41/41/41 44/42/42 43/43/43 42/44/44
f 45/45/45 41/41/41 42/44/44 46/46/46
f 47/47/47 45/45/45 46/46/46 48/48/48
f 49/49/49 47/47/47 48/48/48 50/50/50
f 42/44/44 43/43/43 52/51/51 51/52/52
f 46/46/46 42/44/44 51/52/52 53/53/53
f 48/48/48 46/46/46 53/53/53 54/54/54
f 50/50/50 48/48/48 54/54/54 55/55/55
f 51/52/52 52/51/51 57/56/56 56/57/57
f 53/53/53 51/52/52 56/57/57 58/58/58
f 54/54/54 53/53/53 58/58/58 59/59/59
f 55/55/55 54/54/54 59/59/59 60/60/60
f 56/57/57 57/56/56 40/39/39 34/32/32
f 58/58/58 56/57/57 34/32/32 31/31/31
f 59/59/59 58/58/58 31/31/31 38/36/36
f 60/60/60 59/59/59 38/36/36 35/35/35
