# Blender 4.1.1
# www.blender.org
mtllib BuildingFloorEdited.mtl
o Shape008
v -1.941864 20.999893 7.152916
v -1.941864 20.999893 11.686808
v 8.199080 20.999893 11.686809
v 8.199081 20.999893 -1.116843
v 13.045473 20.999893 -1.116842
v 13.045475 20.999893 -14.629389
v -2.242699 20.999893 -14.629391
v -2.242701 20.999893 -2.847083
v -17.551643 20.999893 -2.847085
v -1.941864 21.299892 7.152916
v -1.941864 21.299892 11.686808
v 8.199080 21.299892 11.686809
v 8.199081 21.299892 -1.116843
v 13.045473 21.299892 -1.116842
v 13.045475 21.299892 -14.629389
v -2.242699 21.299892 -14.629391
v -2.242701 21.299892 -2.847083
v -17.551643 21.299892 -2.847085
v -15.509623 21.039139 7.152915
v -15.509623 21.299892 7.152915
v -15.509623 20.999893 7.152915
v -15.509623 20.999893 5.819039
v -15.509623 20.999893 5.401848
v -17.509623 20.999893 5.401847
v -15.509623 21.299892 5.819039
v -15.509623 21.299892 5.401848
v -17.509623 21.299892 5.401847
v -17.551645 21.299892 5.401847
v -17.551645 21.247360 5.401847
v -17.551645 20.999893 5.401847
v -16.864964 20.999893 5.401848
v -16.864964 21.299892 5.401848
vn -0.0000 -0.0000 1.0000
vn -1.0000 -0.0000 -0.0000
vn 1.0000 -0.0000 -0.0000
vn -0.0000 -0.0000 -1.0000
vn -0.0000 -1.0000 -0.0000
vn -0.0000 1.0000 -0.0000
vt 0.527652 1.415000
vt -0.829124 1.415000
vt -0.829124 1.388924
vt 0.527652 1.385000
vt -0.829124 1.385000
vt 1.827799 1.415000
vt 1.374410 1.415000
vt 1.374410 1.385000
vt 1.827799 1.385000
vt 1.541746 1.415000
vt 0.527651 1.415000
vt 0.527651 1.385000
vt 1.541746 1.385000
vt 0.452566 1.415000
vt -0.827799 1.415000
vt -0.827799 1.385000
vt 0.452566 1.385000
vt 2.026386 1.415000
vt 1.541746 1.415000
vt 1.541746 1.385000
vt 2.026386 1.385000
vt 1.803820 1.415000
vt 0.452566 1.415000
vt 0.452566 1.385000
vt 1.803820 1.385000
vt 0.502431 1.415000
vt -1.026386 1.415000
vt -1.026386 1.385000
vt 0.502431 1.385000
vt 0.374410 1.415000
vt -0.803821 1.415000
vt -0.803821 1.385000
vt 0.374410 1.385000
vt 2.033326 1.415000
vt 0.502432 1.415000
vt 0.502432 1.385000
vt 2.033326 1.385000
vt 1.199302 1.409747
vt 1.199302 1.415000
vt 0.374409 1.415000
vt 0.374409 1.385000
vt 1.199302 1.385000
vt -0.541746 -0.827799
vt 0.472349 -0.827799
vt 0.472348 -0.374410
vt -0.541746 0.452566
vt 2.033326 0.625591
vt 0.502432 0.625590
vt 1.829124 -0.241022
vt 1.829124 -0.199302
vt 1.964658 -0.199302
vt 2.029124 -0.199302
vt 2.033326 -0.199302
vt 1.829124 -0.374409
vt -1.026386 0.452566
vt -1.026386 1.803820
vt 0.502431 1.803821
vt 2.026386 1.803820
vt 0.497569 1.803821
vt 0.497568 0.625590
vt -0.829124 -0.199302
vt -0.829124 -0.241022
vt -1.033326 0.625591
vt -1.033326 -0.199302
vt -1.029124 -0.199302
vt -0.964658 -0.199302
vt 0.527652 -0.374410
vt -0.829124 -0.374409
vt 0.527651 -0.827799
vt 1.541746 -0.827799
vt 1.541746 0.452566
vt 2.026386 0.452566
vt 0.000000 0.000000
s 1
usemtl Wall_Paint
f 10/1/1 20/2/1 19/3/1
f 1/4/1 10/1/1 19/3/1 21/5/1
f 11/6/2 10/7/2 1/8/2
f 1/8/2 2/9/2 11/6/2
f 12/10/1 11/11/1 2/12/1
f 2/12/1 3/13/1 12/10/1
f 13/14/3 12/15/3 3/16/3
f 3/16/3 4/17/3 13/14/3
f 14/18/1 13/19/1 4/20/1
f 4/20/1 5/21/1 14/18/1
f 15/22/3 14/23/3 5/24/3
f 5/24/3 6/25/3 15/22/3
f 16/26/4 15/27/4 6/28/4
f 6/28/4 7/29/4 16/26/4
f 17/30/2 16/31/2 7/32/2
f 7/32/2 8/33/2 17/30/2
f 18/34/4 17/35/4 8/36/4
f 8/36/4 9/37/4 18/34/4
f 29/38/2 28/39/2 18/40/2 9/41/2
f 9/41/2 30/42/2 29/38/2
f 3/43/5 2/44/5 1/45/5
f 4/46/5 3/43/5 1/45/5
f 9/47/5 8/48/5 22/49/5 23/50/5 31/51/5 24/52/5 30/53/5
f 1/45/5 21/54/5 22/49/5 8/48/5
f 4/46/5 1/45/5 8/48/5
f 5/55/5 4/46/5 8/48/5
f 6/56/5 5/55/5 8/48/5
f 6/56/5 8/48/5 7/57/5
f 15/58/6 16/59/6 17/60/6
f 26/61/6 25/62/6 17/60/6 18/63/6 28/64/6 27/65/6 32/66/6
f 10/67/6 17/60/6 25/62/6 20/68/6
f 10/67/6 11/69/6 12/70/6
f 10/67/6 12/70/6 13/71/6
f 17/60/6 10/67/6 13/71/6
f 17/60/6 13/71/6 14/72/6
f 15/58/6 17/60/6 14/72/6
s 0
f 23/73/1 26/73/1 32/73/1 31/73/1
f 32/73/1 27/73/1 24/73/1 31/73/1
f 25/73/2 26/73/2 23/73/2 22/73/2 21/73/2 19/73/2 20/73/2
f 29/73/1 30/73/1 24/73/1 27/73/1 28/73/1
