# Blender 4.2.3 LTS
# www.blender.org
mtllib UpdatedFloorMesh10.mtl
o Shape008
v -0.311222 8.624208 -0.149998
v -0.311222 13.158100 -0.149998
v -10.452167 13.158100 -0.149998
v -10.452168 0.354449 -0.149998
v -15.298559 0.354450 -0.150000
v -15.298561 -13.158096 -0.150000
v -0.010387 -13.158098 -0.149998
v -0.010385 -1.375791 -0.149998
v 15.298557 -1.375793 -0.149996
v -0.311222 8.624208 0.150002
v -0.311222 13.158100 0.150002
v -10.452167 13.158100 0.150002
v -10.452168 0.354449 0.150002
v -15.298559 0.354450 0.150000
v -15.298561 -13.158096 0.150000
v -0.010387 -13.158098 0.150002
v -0.010385 -1.375791 0.150002
v 15.298557 -1.375793 0.150003
v 13.256536 8.624207 -0.110750
v 13.256536 8.624207 0.150003
v 13.256536 8.624207 -0.149996
v 13.256536 7.290331 -0.149996
v 13.256536 6.873140 -0.149996
v 15.256536 6.873139 -0.149996
v 13.256536 7.290331 0.150003
v 13.256536 6.873140 0.150003
v 15.256536 6.873139 0.150003
v 15.298559 6.873139 0.150003
v 15.298559 6.873139 0.097471
v 15.298559 6.873139 -0.149996
v 14.611877 6.873140 -0.149996
v 14.611877 6.873140 0.150003
vn -0.0000 1.0000 -0.0000
vn 1.0000 -0.0000 -0.0000
vn -1.0000 -0.0000 -0.0000
vn -0.0000 -1.0000 -0.0000
vn -0.0000 -0.0000 -1.0000
vn -0.0000 -0.0000 1.0000
vt 0.527652 1.415000
vt -0.829124 1.415000
vt -0.829124 1.388924
vt 0.527652 1.385000
vt -0.829124 1.385000
vt 1.827799 1.415000
vt 1.374410 1.415000
vt 1.374410 1.385000
vt 1.827799 1.385000
vt 1.541746 1.415000
vt 0.527651 1.415000
vt 0.527651 1.385000
vt 1.541746 1.385000
vt 0.452566 1.415000
vt -0.827799 1.415000
vt -0.827799 1.385000
vt 0.452566 1.385000
vt 2.026386 1.415000
vt 2.026386 1.385000
vt 1.803820 1.415000
vt 1.803820 1.385000
vt 0.502431 1.415000
vt -1.026386 1.415000
vt -1.026386 1.385000
vt 0.502431 1.385000
vt 0.374410 1.415000
vt -0.803821 1.415000
vt -0.803821 1.385000
vt 0.374410 1.385000
vt 2.033326 1.415000
vt 0.502432 1.415000
vt 0.502432 1.385000
vt 2.033326 1.385000
vt 1.199302 1.409747
vt 1.199302 1.415000
vt 0.374409 1.415000
vt 0.374409 1.385000
vt 1.199302 1.385000
vt -0.541746 -0.827799
vt 0.472349 -0.827799
vt 0.472348 -0.374410
vt -0.541746 0.452566
vt 2.033326 0.625591
vt 0.502432 0.625590
vt 1.829124 -0.241022
vt 1.829124 -0.199302
vt 1.964658 -0.199302
vt 2.029124 -0.199302
vt 2.033326 -0.199302
vt 1.829124 -0.374409
vt -1.026386 0.452566
vt -1.026386 1.803820
vt 0.502431 1.803821
vt 2.026386 1.803820
vt 0.497569 1.803821
vt 0.497568 0.625590
vt -0.829124 -0.199302
vt -0.829124 -0.241022
vt -1.033326 0.625591
vt -1.033326 -0.199302
vt -1.029124 -0.199302
vt -0.964658 -0.199302
vt 0.527652 -0.374410
vt -0.829124 -0.374409
vt 0.527651 -0.827799
vt 1.541746 -0.827799
vt 1.541746 0.452566
vt 2.026386 0.452566
vt 0.000000 0.000000
s 1
usemtl Wall_Paint
f 10/1/1 20/2/1 19/3/1
f 1/4/1 10/1/1 19/3/1 21/5/1
f 11/6/2 10/7/2 1/8/2
f 1/8/2 2/9/2 11/6/2
f 12/10/1 11/11/1 2/12/1
f 2/12/1 3/13/1 12/10/1
f 13/14/3 12/15/3 3/16/3
f 3/16/3 4/17/3 13/14/3
f 14/18/1 13/10/1 4/13/1
f 4/13/1 5/19/1 14/18/1
f 15/20/3 14/14/3 5/17/3
f 5/17/3 6/21/3 15/20/3
f 16/22/4 15/23/4 6/24/4
f 6/24/4 7/25/4 16/22/4
f 17/26/2 16/27/2 7/28/2
f 7/28/2 8/29/2 17/26/2
f 18/30/4 17/31/4 8/32/4
f 8/32/4 9/33/4 18/30/4
f 29/34/2 28/35/2 18/36/2 9/37/2
f 9/37/2 30/38/2 29/34/2
f 3/39/5 2/40/5 1/41/5
f 4/42/5 3/39/5 1/41/5
f 9/43/5 8/44/5 22/45/5 23/46/5 31/47/5 24/48/5 30/49/5
f 1/41/5 21/50/5 22/45/5 8/44/5
f 4/42/5 1/41/5 8/44/5
f 5/51/5 4/42/5 8/44/5
f 6/52/5 5/51/5 8/44/5
f 6/52/5 8/44/5 7/53/5
f 15/54/6 16/55/6 17/56/6
f 26/57/6 25/58/6 17/56/6 18/59/6 28/60/6 27/61/6 32/62/6
f 10/63/6 17/56/6 25/58/6 20/64/6
f 10/63/6 11/65/6 12/66/6
f 10/63/6 12/66/6 13/67/6
f 17/56/6 10/63/6 13/67/6
f 17/56/6 13/67/6 14/68/6
f 15/54/6 17/56/6 14/68/6
s 0
f 23/69/1 26/69/1 32/69/1 31/69/1
f 32/69/1 27/69/1 24/69/1 31/69/1
f 25/69/2 26/69/2 23/69/2 22/69/2 21/69/2 19/69/2 20/69/2
f 29/69/1 30/69/1 24/69/1 27/69/1 28/69/1
